<svg version="1.1" xmlns="http://www.w3.org/2000/svg" viewBox="0 0 626.1328125 886.15234375" width="626.1328125" height="886.15234375"><!-- svg-source:excalidraw --><metadata><!-- payload-type:application/vnd.excalidraw+json --><!-- payload-version:2 --><!-- payload-start -->eyJ2ZXJzaW9uIjoiMSIsImVuY29kaW5nIjoiYnN0cmluZyIsImNvbXByZXNzZWQiOnRydWUsImVuY29kZWQiOiJ4nO2bW1Piylx1MDAxNsff51NQntcxu++XeTklKlx1MDAxYp1cdTAwMTllwFHxzK6pSFrJNiRMXGIg7prvvjtBXHTkZlBkmFNglVx1MDAwNZ1O39K//+pevfLPu0plJ5j01c6Hyo6675iObfnmeOd9mD5S/sD2XFx9XHRFv1x1MDAwN97Q70Q5u0HQXHUwMDFmfPjjXHUwMDBms983bu3g2vPujI7Xm96mXHUwMDFj1VNuMNBcdTAwMTn/p39XKv9E//VcdTAwMTXbXG5vvlx1MDAxYVxcXt2dVKuUmyf3k+P+qclYJ7o1yvTUXHUwMDFhX3VcdTAwMDLTvXVUfOlep0NcdTAwMDZccsBcdTAwMThcdTAwMDFcZtHZhYm+IGa/xrZcdTAwMTV0w1YzMEvrKvu2XHUwMDFi6ERcdTAwMTmnTUv/UIlTXHUwMDA2ge/dqX3P8fywXHT/gSr8i1x1MDAxYnBtdu5ufW/oWrM8gW+6g77p61x1MDAxZcf5bmzHaVx1MDAwNZOodD1selB3XHUwMDEydVxcPLUxkZ53l670tuuqQTiqcJbq9c2OXHUwMDFkhL2HIO5F2ML+kVx1MDAxNT2Av+I2+WZPXHUwMDFkhU/AXHUwMDFkOs4s2XYtXHUwMDE1juuOXHRcdTAwMTZqc63H2lx1MDAxNnJcdTAwMGaUXG5LgFxiYYFcdTAwMDXg8aDHk1x1MDAwNSfTTjw3mjaQY0ykgITFtVx1MDAwZlx1MDAwZfR0XHSiQm9MZ6DioVx1MDAwZZtwmJxK89NpYbZcdTAwMDTqPlx1MDAxZf+5ySZcdTAwMWF7waTu0aN6n146l5fkoHp/tDPL9/N9drHTm7/8OEd7N8Hnc3nfx9VcdTAwMDDvf1x1MDAxY7SvXHUwMDE2a3mq3/R9bzxX7uO3ePiHfcuc9lx1MDAxM3JcdTAwMDFcdTAwMDBFgGNKyey6Y7t3ydF2vM5dPDTv5lx1MDAxYZxAyu3Uxlx1MDAwZWl8Mn/0WoD1nDFsN/00UpZt9jzXSlx1MDAwMMWxQSRAmGC+SFx1MDAxNCRcdTAwMTlMYWZAmsg8gyvz6lx1MDAxNrNcdTAwMDXMYHnMOFx1MDAwM1BcdTAwMDJcZlhcdTAwMDZlNJcyQlx1MDAwMGVcdTAwMDKhNVI2nFxc3nLmslx1MDAxZodcdTAwMTetq/umVM1cdTAwMTN1t1x1MDAwNspcbsv1XHUwMDFi3m7zq1x1MDAxZZiP8MD1XHUwMDAyvt8nn5srKPd72+b1xvfgZlI/O+9cdTAwMWVcdTAwMWbKvo8/r1RcdTAwMTXiZ/sqVVx1MDAxOPVaXHUwMDFm7csx/HP/XHUwMDFlt/tOXHUwMDFk/V1tn5Q2tDH74cQnjKTJ3lx1MDAxYdpcdTAwMTcpXHUwMDAwWsLQXHUwMDAyiSHjlIIk7oWGljIsiOQs7vSbS8DoXHUwMDA0o/1cdTAwMGJcIutcdTAwMWad/Vx1MDAxMbtuOfjcqq9cdTAwMDHV9VwidVxiVXOfX3X65MRcdTAwMWJC91x1MDAxZe2BY7s0Ulx1MDAxOCag4rJcdTAwMDAqilxmxOj8MnfGXHUwMDE227KVw1x1MDAxNi7PXHUwMDE21iZSz1xySTLQSqU9oUUkwZSs07a2PzVEzd7vdavXRyPZa46a13uTNdiqwnJcdTAwMWb2VO2Hx9i5f3Dk7KlPdeY84JVcdTAwMDLLVlx1MDAwM+xx/ZJ9bzX41+Zp9bJh4+D4rt1aXHUwMDAyWG31MFx1MDAxMjCx12Rga1xyV0UsWcJcdTAwMWFCzqkgXHUwMDEwZS2Ic5FFXHUwMDAwYMYg4WR90HYvx62/afvgXHUwMDEzXHUwMDFin96dyMFFcNFsrFx1MDAwMa7Cck+ZPP/RbTvdXHUwMDA330FibFxy22y3tonQdlp+62Fy2v5K0Oh7cN5cdTAwMDZnaihfXHItJ1toV1x1MDAwNS1dXHUwMDAyWlx1MDAwMlx1MDAwNWNcXI/7MktYXHUwMDAxXHUwMDA01LjDNTJrm1Xr4uFre7dcdTAwMDZvPjpcdTAwMTeHzW6jJf/v2CrebSdcdTAwMWG5wFx1MDAxNZKR53WBKSmMNEtcdTAwMTkkka07KIcklk1SPMWeXHUwMDFlXHR6TPmZXHUwMDAyjFwiTvR2T2btXHUwMDExc62iXHUwMDE0mkqIXuaLXaVbc5bc9+wkv/G3Sjxfolx1MDAxZrPvf71/PjdcIlx1MDAwNl3qXHUwMDA2Mpc9hadjXHUwMDBlgn2v17NcdTAwMDPd8UbY6JTyXHUwMDA1plx1MDAxZlT1M7bd28Vn+Xg2clTiICScPF5nXHUwMDE4XHUwMDBlXGIwQPjB2qJFX1x1MDAwMEJS2zcyl/XW7IfPIDVHlGs935Bi9/FcXEN2w5ZcdTAwMTCEuZT6SWNAsFx1MDAwMDTVXG5iIEKlhIRJXHUwMDAwMWAkPXPDXHUwMDAx2lx1MDAwYiWmq8xcdTAwMTRcdTAwMWO6zfPXklqknGtvXFxK64rdXG6FWoeRIblcXNA6jJhBWVruJFx0s4LZJ1x1MDAxNoqZ/EGMXHIg+FZcdTAwMDOzNZCvQlx1MDAwM/VcXISCZlx1MDAxZEjlaiDUt1FcdTAwMDLwnHftzVdcdTAwMTn9s72LyfHgtNaejJpXrS9Vd0Sv3taf9TZcbrubO+/Dj+RcdTAwMDZcdTAwMTVMxp/XXHUwMDE191xi0DpUubRcdTAwMThOtVx1MDAxMEm9voV6dYu4TEvhXHUwMDBiXHUwMDA1udhzP9+GXGbxXHItRbjHmY5cIv5V4lvseipcdTAwMTJfTEK3aEzts+Ir4mlcdTAwMTbzXHUwMDFmiy9cdTAwMTFb8c1cdTAwMTdf8WrxRYAyvVx1MDAxZSBkKbeMwFx1MDAxMM/J9ZtcdTAwMGJvvfWp1vhi3ahcdTAwMTFu7NpfncNB07n/XHUwMDFkhTd3ykdcdTAwMTeX1d3C0lx1MDAxZdHZQNnVxl6vhzkmgFx1MDAwMpKhuzpcdTAwMTNjXGJyQjlmXHUwMDE4k6c+LCnExec96SW6XHUwMDFlMEaRwJhcdEhcdTAwMDFcdTAwMTMs1bKN0ediL2ORPpPQkYZj100oRFx1MDAxNEtD97yML2B7eJUnxfLVUiw55VDipVbBhGC9XHUwMDEwpvBFWrxKr9VcdTAwMWE8XHUwMDAxepYu51x0YHPlv534lZaZ3aTOcEQgXHUwMDAziM/lfdXKs/i8LEvwtFx1MDAxNlx1MDAwM84kXCJ67lEuUlxymVx0XHUwMDFliexcdTAwMGJlv0rwil20y1xuXHUwMDFl04azpOBtnZ95grf3asEj2rhzXHQzXHUwMDBmXHUwMDE3clx1MDAxNU/PRcI1PS/a9v9mirehvs/SOrNbWmheqHjFh42/teJlXHUwMDA3P6dcdTAwMTRvYcc0dX9CbmjjXCJFKiZcdTAwMTilQ4IhYVx1MDAwNmFEZIdcdTAwMDTT7WovR/yqS5yhMsr1LluguPllwlx1MDAwMFx045RcdTAwMTGEXlx1MDAxNFx1MDAwNvgmOlx1MDAxN0013fk/XHUwMDBmWpWmXHUwMDFhKH9kXHUwMDA2usXf3H1Tt9lxol9zz9Vzg5b9MI3iWEitmT3biTZcdTAwMWVcdTAwMGJl7zn2rVx1MDAxYlGtu6HmQuD10Fx1MDAwNHbHdGZcdTAwMTl6tmXNR1x1MDAwZXR0oabtKr/M2cyO59u3tms6Z9n9qWR3x1x1MDAxY1x1MDAwNp7ONe1Q4Fx1MDAwZtX8XHUwMDEwqvrMYWUgWkB1drB1XHUwMDE5qvUyRmj5ojhcdTAwMTlcdTAwMWGhXHUwMDE3kVx1MDAwNsBcdTAwMDJcYiqzgiMkNlxi4jwn6H9LeFx1MDAxZeH75Vx0R1x1MDAwMGFMIFx1MDAxNMtcdTAwMTGuTYxeXHUwMDAxUfEmp7ivXCL8aFBcdKE4M6+/uYeuee0o67+bXHUwMDAw9jOvyiTBjrtRSfdiNTxnR06X4Jlgg1winn5vR5vi/EAnKIQhXHUwMDEzXHUwMDEysEX5WZRcdTAwMGaWQFlcIj24QmR5w3NJ5kByQVx1MDAwNX1RvNObgjw1ZVx1MDAwYtbNXGa+uWfRo/X8oNLwvZFtzTP56+h+5pWXJN2ZfatcdTAwMTR1bTXIZ8d0l0BcdTAwMWVToEumXHQ7XHUwMDFkQS9Z6I/Ig55cdTAwMWKcYlx0Mt8mQFv/RFx1MDAwZfWH5alcdTAwMTdcdTAwMTRJRljmu3r59ltcdTAwMWJ8gVx1MDAwNVwim7dCr3mO440rrcB0LdO3KjVnflx1MDAwZvrrXGJ/5lxynCThxd1YXHLN2cHeZWjGwkhAXHUwMDE5uVx1MDAxNlFRoDKExnavvSzItfIgQ8CRrjHzMDtcdTAwMTdkzFx0hVxmbJBHMWG+XHUwMDFiJ82K7Vb2eqalhoNv7lGvpyxbV+ZMNoHqZ17TybHbi52qZPZpNYhnx4aXNNiQpP1ovOh92tBcXEsmtogvg/ifSyBOXHUwMDE5Z1TvnJbabGvEJaaIbd5e+8SrfFx1MDAxOaqhqjRcdTAwMWOzXHUwMDEz1fnNbSj/xvM1XHUwMDEwm4D3My/0JPFO96eS0Z3VkJ1cdTAwMWSPWYJsiLAhuEibb6ItdNbJIFx1MDAxMoZe6MFMrLdL8Dys60tgjXFcdTAwMThcdTAwMTbEl3xZXiAhJeCbZ7rbarBcdPA+XHUwMDEzRZ+Ed6HVq2E0O3SvXHUwMDA0o1x1MDAwNFx1MDAwM4NLXGZpaUb1JprnmN4to3mMXHUwMDFllWdcdTAwMTRcdTAwMTHGXHUwMDE4XHUwMDA3y22TXHTUxlx1MDAxYYJcctwln3ibQOgzodZp8/pcbkDfPYZcdTAwMDPsmP2+3lVcdTAwMDfhfVNcXPXssa3EXHUwMDAwTNNcdTAwMDLVjztcdTAwMWYlffYs9ehPX1x1MDAxY9udka3G1WJY3j3qRFxii4riRX6++/kv+1x1MDAxOGLbIn0=<!-- payload-end --></metadata><defs><style class="style-fonts">
      @font-face { font-family: Excalifont; src: url(https://esm.sh/@excalidraw/excalidraw@0.18.0/dist/prod/fonts/Excalifont/Excalifont-Regular-a88b72a24fb54c9f94e3b5fdaa7481c9.woff2); }</style></defs><rect x="0" y="0" width="626.1328125" height="886.15234375" fill="transparent"/><g stroke-linecap="round" transform="translate(183.06640625 30) rotate(0 130 45)"><path d="M0 0 C70.56 1.97, 141.49 2.13, 260 0 M0 0 C102.3 1.04, 204.4 1.19, 260 0 M260 0 C260.17 36.16, 261.33 68.91, 260 90 M260 0 C260.19 31.16, 259.89 63.58, 260 90 M260 90 C162.78 92.14, 63.81 92.48, 0 90 M260 90 C183.76 89.85, 108.63 90.56, 0 90 M0 90 C0.77 59.58, -1.31 28.53, 0 0 M0 90 C0.5 64.73, 1.72 38.72, 0 0" stroke="#1e1e1e" stroke-width="2" fill="none"/></g><g transform="translate(239.833984375 50) rotate(0 73.232421875 25)"><text x="73.232421875" y="17.619999999999997" font-family="Excalifont, Xiaolai, Segoe UI Emoji" font-size="20px" fill="#1e1e1e" text-anchor="middle" style="white-space: pre;" direction="ltr" dominant-baseline="alphabetic">GDS Reservation</text><text x="73.232421875" y="42.62" font-family="Excalifont, Xiaolai, Segoe UI Emoji" font-size="20px" fill="#1e1e1e" text-anchor="middle" style="white-space: pre;" direction="ltr" dominant-baseline="alphabetic">Cancellation</text></g><g stroke-linecap="round" transform="translate(195.490234375 170) rotate(0 118.076171875 118.076171875)"><path d="M119 0 C154.17 36.65, 189.72 73.55, 236.15 119 M119 0 C142.64 25.15, 167.32 49.91, 236.15 119 M236.15 119 C202.78 155.75, 165.41 190.86, 119 236.15 M236.15 119 C199.76 155.55, 163.58 193.25, 119 236.15 M119 236.15 C93.97 211.76, 69.41 187.34, 0 119 M119 236.15 C92.57 211.4, 68.13 186.29, 0 119 M0 119 C27.06 90.42, 53.66 65.51, 119 0 M0 119 C25.1 95.94, 48.74 70.48, 119 0" stroke="#1e1e1e" stroke-width="2" fill="none"/></g><g transform="translate(266.814453125 263.0380859375) rotate(0 46.7138671875 25)"><text x="46.7138671875" y="17.619999999999997" font-family="Excalifont, Xiaolai, Segoe UI Emoji" font-size="20px" fill="#1e1e1e" text-anchor="middle" style="white-space: pre;" direction="ltr" dominant-baseline="alphabetic">Is GDS Tab</text><text x="46.7138671875" y="42.62" font-family="Excalifont, Xiaolai, Segoe UI Emoji" font-size="20px" fill="#1e1e1e" text-anchor="middle" style="white-space: pre;" direction="ltr" dominant-baseline="alphabetic">Enabled?</text></g><g stroke-linecap="round" transform="translate(30 486.15234375) rotate(0 130 45)"><path d="M0 0 C60.49 0, 121.09 -2.12, 260 0 M0 0 C64.01 0.37, 127.13 0.38, 260 0 M260 0 C261.39 30.89, 261.16 63.33, 260 90 M260 0 C259.83 34.75, 260.83 69.02, 260 90 M260 90 C162.98 91.82, 66.38 89.44, 0 90 M260 90 C176.21 88.36, 91.77 87.69, 0 90 M0 90 C-2.03 62.58, -0.41 31.75, 0 0 M0 90 C1.19 67.63, 0.07 46.94, 0 0" stroke="#1e1e1e" stroke-width="2" fill="none"/></g><g transform="translate(65.52734375 506.15234375) rotate(0 94.47265625 25)"><text x="94.47265625" y="17.619999999999997" font-family="Excalifont, Xiaolai, Segoe UI Emoji" font-size="20px" fill="#1e1e1e" text-anchor="middle" style="white-space: pre;" direction="ltr" dominant-baseline="alphabetic">Cancel Reservation at</text><text x="94.47265625" y="42.62" font-family="Excalifont, Xiaolai, Segoe UI Emoji" font-size="20px" fill="#1e1e1e" text-anchor="middle" style="white-space: pre;" direction="ltr" dominant-baseline="alphabetic">Transport Provider</text></g><g stroke-linecap="round" transform="translate(340 501.15234375) rotate(0 126.1328125 30)"><path d="M0 0 C78.8 0.62, 154.76 -1.79, 252.27 0 M0 0 C91.15 -1.32, 182.3 -1.61, 252.27 0 M252.27 0 C252.03 19.55, 252.94 38.7, 252.27 60 M252.27 0 C251.62 19.17, 250.93 37.53, 252.27 60 M252.27 60 C165.98 59.53, 76.28 60.05, 0 60 M252.27 60 C186.1 61.67, 119.18 61.4, 0 60 M0 60 C0.54 41.4, -2.11 22.38, 0 0 M0 60 C-0.68 43.89, 0.34 28.9, 0 0" stroke="#1e1e1e" stroke-width="2" fill="none"/></g><g transform="translate(372.255859375 518.65234375) rotate(0 93.876953125 12.5)"><text x="93.876953125" y="17.619999999999997" font-family="Excalifont, Xiaolai, Segoe UI Emoji" font-size="20px" fill="#1e1e1e" text-anchor="middle" style="white-space: pre;" direction="ltr" dominant-baseline="alphabetic">Follow Standard Flow</text></g><g stroke-linecap="round" transform="translate(336.1328125 626.15234375) rotate(0 130 45)"><path d="M0 0 C87.82 -2.33, 171.79 0.11, 260 0 M0 0 C74.11 0, 147.24 0.05, 260 0 M260 0 C261.68 33.47, 262.36 66.53, 260 90 M260 0 C260.56 19.55, 260.52 41.36, 260 90 M260 90 C171.4 89.88, 83.44 90.68, 0 90 M260 90 C203.56 89.54, 146.48 90.18, 0 90 M0 90 C0.53 58.02, -0.28 29.14, 0 0 M0 90 C-1.03 62.91, -0.15 34.76, 0 0" stroke="#1e1e1e" stroke-width="2" fill="none"/></g><g transform="translate(360.390625 646.15234375) rotate(0 105.7421875 25)"><text x="105.7421875" y="17.619999999999997" font-family="Excalifont, Xiaolai, Segoe UI Emoji" font-size="20px" fill="#1e1e1e" text-anchor="middle" style="white-space: pre;" direction="ltr" dominant-baseline="alphabetic">Cancel PNR in Amadeus</text><text x="105.7421875" y="42.62" font-family="Excalifont, Xiaolai, Segoe UI Emoji" font-size="20px" fill="#1e1e1e" text-anchor="middle" style="white-space: pre;" direction="ltr" dominant-baseline="alphabetic">Immediately</text></g><g stroke-linecap="round" transform="translate(336.1328125 766.15234375) rotate(0 130 45)"><path d="M0 0 C87.53 -2.81, 178.96 -2.19, 260 0 M0 0 C103.63 -1.39, 207.29 -1.25, 260 0 M260 0 C259.97 34.7, 259.84 64.41, 260 90 M260 0 C258.91 25.69, 260.27 50.33, 260 90 M260 90 C184.98 90.22, 112.14 88.53, 0 90 M260 90 C164.96 91.05, 71.19 91.22, 0 90 M0 90 C-2.24 70.82, -1.05 54.09, 0 0 M0 90 C0.95 55.83, 0.25 20.45, 0 0" stroke="#1e1e1e" stroke-width="2" fill="none"/></g><g transform="translate(372.1484375 786.15234375) rotate(0 93.984375 25)"><text x="93.984375" y="17.619999999999997" font-family="Excalifont, Xiaolai, Segoe UI Emoji" font-size="20px" fill="#1e1e1e" text-anchor="middle" style="white-space: pre;" direction="ltr" dominant-baseline="alphabetic">No Queue Placement</text><text x="93.984375" y="42.62" font-family="Excalifont, Xiaolai, Segoe UI Emoji" font-size="20px" fill="#1e1e1e" text-anchor="middle" style="white-space: pre;" direction="ltr" dominant-baseline="alphabetic">Performed</text></g><g stroke-linecap="round"><g transform="translate(313.066 120.5) rotate(0 0 22.5)"><path d="M-0.5 -0.31 C-0.48 3.67, 0.16 16.85, 0.34 24.4 C0.51 31.96, 0.52 41.57, 0.54 45 M0.24 0.72 C0.2 5.02, 0.04 17.57, 0.08 25.05 C0.12 32.53, 0.35 42.19, 0.47 45.6" stroke="#1e1e1e" stroke-width="2" fill="none"/></g><g transform="translate(313.066 120.5) rotate(0 0 22.5)"><path d="M-3.32 36.08 C-2.27 39.67, -0.77 43.12, 0.47 45.6 M-3.32 36.08 C-2.01 38.96, -0.82 41.98, 0.47 45.6" stroke="#1e1e1e" stroke-width="2" fill="none"/></g><g transform="translate(313.066 120.5) rotate(0 0 22.5)"><path d="M3.69 35.87 C2.34 39.5, 1.44 43.02, 0.47 45.6 M3.69 35.87 C2.9 38.82, 1.97 41.89, 0.47 45.6" stroke="#1e1e1e" stroke-width="2" fill="none"/></g></g><mask/><g mask="url(#mask-rPo-RUonNK1Dnot7Cp4MR)" stroke-linecap="round"><g transform="translate(254.979 348.565) rotate(0 -47.48950000000001 66.5435)"><path d="M-0.68 0.74 C-16.73 17.38, -79.48 76.54, -95.19 98.77 C-110.91 121, -95.01 128.3, -94.97 134.12 M1.16 0.08 C-15.16 16.51, -80.1 75.23, -96.25 97.27 C-112.4 119.31, -95.99 126.63, -95.73 132.33" stroke="#1e1e1e" stroke-width="2" fill="none"/></g><g transform="translate(254.979 348.565) rotate(0 -47.48950000000001 66.5435)"><path d="M-109.12 120.67 C-102.9 125, -96.99 129.89, -95.73 132.33 M-109.12 120.67 C-103.88 125.72, -98.19 129.33, -95.73 132.33" stroke="#1e1e1e" stroke-width="2" fill="none"/></g><g transform="translate(254.979 348.565) rotate(0 -47.48950000000001 66.5435)"><path d="M-98.5 114.79 C-96.49 121.36, -94.74 128.55, -95.73 132.33 M-98.5 114.79 C-97.36 122.17, -95.77 128.04, -95.73 132.33" stroke="#1e1e1e" stroke-width="2" fill="none"/></g></g><mask id="mask-rPo-RUonNK1Dnot7Cp4MR"><rect x="0" y="0" fill="#fff" width="449.958" height="581.652"/><rect x="145.87890625000003" y="433.652" fill="#000" width="28.2421875" height="25" opacity="1"/></mask><g transform="translate(145.87890625 433.652) rotate(0 58.00480302138125 -17.986752578726936)"><text x="14.12109375" y="17.619999999999997" font-family="Excalifont, Xiaolai, Segoe UI Emoji" font-size="20px" fill="#1e1e1e" text-anchor="middle" style="white-space: pre;" direction="ltr" dominant-baseline="alphabetic">Yes</text></g><g mask="url(#mask-_Yi7HP_tfyHTVhJE9pr3M)" stroke-linecap="round"><g transform="translate(371.154 348.565) rotate(0 47.48949999999999 74.0435)"><path d="M0.74 -0.21 C16.94 16.17, 80.28 72.87, 96.16 97.59 C112.04 122.31, 96.11 139.68, 96.02 148.11 M-0.34 -1.37 C15.91 15.28, 79.81 74, 95.83 99.14 C111.86 124.27, 95.74 141.07, 95.8 149.44" stroke="#1e1e1e" stroke-width="2" fill="none"/></g><g transform="translate(371.154 348.565) rotate(0 47.48949999999999 74.0435)"><path d="M94.52 124.47 C94.3 131.65, 94.93 136.63, 95.8 149.44 M94.52 124.47 C95.72 132.66, 95.09 140.07, 95.8 149.44" stroke="#1e1e1e" stroke-width="2" fill="none"/></g><g transform="translate(371.154 348.565) rotate(0 47.48949999999999 74.0435)"><path d="M110.87 129.49 C107.25 135.72, 104.47 139.65, 95.8 149.44 M110.87 129.49 C107.11 136.18, 101.55 142.08, 95.8 149.44" stroke="#1e1e1e" stroke-width="2" fill="none"/></g></g><mask id="mask-_Yi7HP_tfyHTVhJE9pr3M"><rect x="0" y="0" fill="#fff" width="566.133" height="596.652"/><rect x="452.79315625000004" y="433.652" fill="#000" width="26.6796875" height="25" opacity="1"/></mask><g transform="translate(452.79315625 433.652) rotate(0 -30.20636057121959 -11.053487536882955)"><text x="13.33984375" y="17.619999999999997" font-family="Excalifont, Xiaolai, Segoe UI Emoji" font-size="20px" fill="#1e1e1e" text-anchor="middle" style="white-space: pre;" direction="ltr" dominant-baseline="alphabetic">No</text></g><g stroke-linecap="round"><g transform="translate(466.133 561.652) rotate(0 0 30)"><path d="M-0.21 1.18 C-0.1 7.82, -0.03 30.63, 0.01 40.54 C0.05 50.44, 0.01 57.22, 0.02 60.6 M-1.78 0.76 C-1.76 7.01, -1.11 29.32, -0.94 38.96 C-0.76 48.6, -0.96 55.29, -0.74 58.58" stroke="#1e1e1e" stroke-width="2" fill="none"/></g><g transform="translate(466.133 561.652) rotate(0 0 30)"><path d="M-4.51 49.05 C-2.52 51.38, -1.73 53.71, -0.74 58.58 M-4.51 49.05 C-2.84 52.2, -1.58 55.77, -0.74 58.58" stroke="#1e1e1e" stroke-width="2" fill="none"/></g><g transform="translate(466.133 561.652) rotate(0 0 30)"><path d="M2.5 48.85 C2.78 51.22, 1.87 53.59, -0.74 58.58 M2.5 48.85 C1.71 52.12, 0.52 55.76, -0.74 58.58" stroke="#1e1e1e" stroke-width="2" fill="none"/></g></g><mask/><g stroke-linecap="round"><g transform="translate(466.133 716.652) rotate(0 0 22.5)"><path d="M0.54 0 C0.56 4.1, 0.52 17, 0.48 24.51 C0.43 32.02, 0.29 41.57, 0.28 45.04 M0.16 -0.47 C0.12 3.73, 0.3 17.52, 0.29 25.21 C0.27 32.9, 0 42.47, 0.07 45.66" stroke="#1e1e1e" stroke-width="2" fill="none"/></g><g transform="translate(466.133 716.652) rotate(0 0 22.5)"><path d="M-3.4 36.02 C-2.15 39.93, -0.89 43.23, 0.07 45.66 M-3.4 36.02 C-2.38 39.12, -1.2 42.17, 0.07 45.66" stroke="#1e1e1e" stroke-width="2" fill="none"/></g><g transform="translate(466.133 716.652) rotate(0 0 22.5)"><path d="M3.61 36.04 C2.33 39.98, 1.05 43.27, 0.07 45.66 M3.61 36.04 C2.47 39.16, 1.5 42.2, 0.07 45.66" stroke="#1e1e1e" stroke-width="2" fill="none"/></g></g><mask/></svg>