<svg version="1.1" xmlns="http://www.w3.org/2000/svg" viewBox="0 0 1023.8966054098369 665.0000438690186" width="1023.8966054098369" height="665.0000438690186"><!-- svg-source:excalidraw --><metadata><!-- payload-type:application/vnd.excalidraw+json --><!-- payload-version:2 --><!-- payload-start -->eyJ2ZXJzaW9uIjoiMSIsImVuY29kaW5nIjoiYnN0cmluZyIsImNvbXByZXNzZWQiOnRydWUsImVuY29kZWQiOiJ4nO2dW1fiyFx1MDAxNsff+1OwPK9jpu6XeVO84IW21VZaT89yRYhcdTAwMTCFXHUwMDA0SfA2q7/72Vx1MDAwMSQhXHQhXHUwMDExRfpcZpm1ZjUhKapS9f/tvWtXyn++lEpr/nPXWvurtGY91c223eiZj2t/XHUwMDA051x1MDAxZqyeZ7tcdTAwMGV8RVx1MDAwNp89t9+rXHUwMDBmrmz5ftf7688/zW7XaNr+teveXHUwMDE5dbczvM1qW1x1MDAxZMvxPbjwv/C5VPpn8H/4xm5cdTAwMDQ3b1x1MDAxZNVrYvuhr1x1MDAwZmvOt/2b1klZsfvBrYOLXmvTs+q+6TTbVvjVXHUwMDEznFfjT89cdTAwMTOfXHUwMDFl7YbfgjNcdTAwMWNcdTAwMTODUC1cYkOEMir5+IqWZTdbPlxcwlx1MDAwNDdcdTAwMTBcdTAwMWNcdTAwMDIjyjFcdTAwMTckvGb4g3+V0PiM5/fcO6vstt1eUKv/YCv4L6zTtVm/a/bcvtNcdTAwMThf4/dMx+uaPXhcYuF1N3a7feo/XHUwMDBmSocnXHTPeS32XHUwMDFitVFcdTAwMGJI7Py0u+BHmy3H8oJcdTAwMDeNx2fdrlm3/eDZYFx1MDAxNLZcIqhhd69cdTAwMTH2ybD8/nWzZ3ZbV4Ovr+DjbvBcdTAwMTGvjS75O6x9z+xYe0H3Of12e3zadlx1MDAxYVbQKWsmmqiX01x1MDAxONVr4mrPsoJcdTAwMTKwJlxmS6VxWOnYSIue++o6gzFcdTAwMTd0JtE0cpPtbcFQ81x1MDAwN2XemG3PXG77JKjBdnxcdTAwMThGh+LESPOtp7CjXCJcdTAwMDP1x9H2w7rsPlfq6sZCp6rTPaFPa+PrfiWeUr/bMIf1wVJiRYXEXHUwMDFjRUZX23bu4lx1MDAwZqXt1u/CJlxmzv76I00219Wv5t6949Vu/Oumg2u9defYzC1cdTAwMWLO0Fx1MDAxNFlcdTAwMDRDhVxuOlBcdTAwMDQhSqmg4lx0WTGcXCIkjNFKOVHloDcoXHUwMDA3XHUwMDE3UFx1MDAwZSFMc0ooLaJcdTAwMWOOqdSSXGK+OOW83Oya1kXtodYpb9drl544cHdOPk05O/5+5b67z9x9t6a/3t/tOa7cya1cdTAwMWNBJ6UyVFxuwlx1MDAxYUnKVOTbV6lcdTAwMTCBXHUwMDA2l1DEseRS4aRwRlcgKVx1MDAwMGmacbqS0bxcdTAwMDaI5JeRRkQygVPtXHUwMDBmm6ZcIkVcdTAwMDGO0FWLXHUwMDEzUfvAKjeeuv7eVl1cdTAwMWR558+7Ncb2I1wi+iO92OHNh/rlqNravaJ47/7Mu7isXZ5XbyZ/5fX3zV7Pfcxb7jnr3nq9evOGte5POvj71sHuNclXbj7RU/w+ovee6/imVZa7vZun7uPjQ+Xy+F7nXHUwMDE2PWbKXHUwMDAwXHUwMDFkM5CnXCKUMEImIIDZiFx1MDAwMkBjIVx1MDAxOcVJg0mgXHUwMDA0zVx1MDAxNdhajrjiUM5cblx1MDAwM1x1MDAwYsBcdTAwMDAtYE2VXHUwMDEwilx1MDAxMDCPKVx1MDAxY+DTOIBcdFx1MDAxN1xcsIWSYKMvdo5cdTAwMWZcdTAwMThp7Fx1MDAxY9hX9u4luVx1MDAxMOrss0mw+YB3XHUwMDFmXs4uXHUwMDBmK+dfN/2XysXxxlH5XHUwMDFkyj1cdTAwMTGyie7Nct9avzo89bdcdTAwMWZcdTAwMGacvdtlJMz91zspW81cdTAwMTZvN182WK3G7zf2qrlcdFx1MDAwM1x1MDAwMy9wyFx1MDAwMVxmXHQ+XHUwMDA0oiF8SFx1MDAxOCyxXHUwMDEw4MDJlZuxXHUwMDE0fGH5+VwiXHUwMDE0XHUwMDEySlxuJuMoycSLIDBGXHUwMDE5j3T4h+OlUT64eKxcdTAwMWVouXG+U11vVVx1MDAxZavN2u1nY+C+fHh751x1MDAxZSPv7pL2Nu8vruXp48M7lEs3du1HdWvVelx1MDAxYlx1MDAwN99J56hyVvc7y4iXs80zb/3huFrhR+fitNo5rz1cXFx1MDAxZuePWlxiMSTE++CacFx1MDAwMr7rZFxmo9Qw3GdSc4gnw29XcFx1MDAxOZz9pKlcdTAwMDBeIIaRXHUwMDE0bIamxeBCXHUwMDE13MZcdTAwMTjTi4OLaH2rPOxWK53D7inpnLBz9+jx22dDwLrd+7G3rU/xjrzZqpov563G9fo7lFuTV7x8fPW8x6v3dLt7Ub68vELvXG6XcDTOXHUwMDA1XHUwMDE3++qFSn/z4ITv9PG69+Pg+LF9mFx1MDAxZi6cXHUwMDE5UCWFXyfQJ+jCR65cdTAwMGJcdTAwMTXDXHTHXHUwMDA0XFywXHUwMDE2XHUwMDA2Ylx1MDAxOFx1MDAxYSQ50USHY3hcdTAwMDWXgdJcbiBD5EeGXCJIqiBkTUHG1GlcdTAwMGasNUGUIb1Af6TfOP+2wcuNi95LrVu/QfSgalZW0s4p7Vxy5Fx1MDAxMnroK9OXlfJ+Y+vstvvUzi1tXHUwMDE2m+1cXHlcblx1MDAxZu4pvCVcZpFcdTAwMDU8XHUwMDA1jjCjUlx1MDAxN5rlIFx1MDAxMHJcdTAwMTIkqFrgLMeZZ91e1+ynI1x1MDAxYtVbna2j8unW/tdcdTAwMDXMS37UbMT/R1x1MDAxOJI9fVx1MDAxNKvkXHUwMDA0SlxiXHUwMDE1XHUwMDA206FlXHREoqlcdTAwMTGOqFeEwHWEXHQ0PlJcdTAwMTDCVin6uZmh0plcdTAwMTFcdTAwMGXO184kozO/wlZcdTAwMGVRwlx1MDAxNZFcdTAwMDL8vbSgY7pcdTAwMDeBsEKcRlPOXHUwMDA1UDIrRahcdTAwMGKM8vHprmvHSVx1MDAxNf6rXHUwMDE0jqzBh/G///4j9eqpozc4XGIz+FxcXHUwMDA1sMjtiS5vm55fdjtcdTAwMWTbh1x1MDAwN/MtaFTCXHUwMDA2+GbP34QxYDvNyb5cdTAwMWWt0tnLkSFcclx1MDAwNpdb71x1MDAwN1x1MDAwZmxkyYWGQcA01mBWwKmUkSubZjfoosRcdTAwMTCynMbsemQnbZL1oFx1MDAwNDFcIpTmSlx1MDAxMKx5OMTGXHUwMDE1YbE8XHJLju3gXHUwMDExbVx1MDAwNPhqWWZCPlDt6Hdxzlnta/cxXHUwMDE3R7PnybI4SrE05CRGwSVP46g00lY7rdA5Nzr1/OjUXHUwMDEw6nKOilx1MDAwNV+Yas4gjP4/JWdkvFx1MDAwNkcuWMbuWVxmXHUwMDFmc3NpfVx1MDAwNCaIl4A1XHUwMDA0gEOxpopGLp1cdTAwMGKQ2TmnXHUwMDE0QFx1MDAwNuhDhHKMJVx1MDAxMixcXNhcdTAwMTVcdTAwMDPka5pcdMD+WYDMnuvLXHUwMDA0pOZcdTAwMDZRsVx1MDAxNW04jZCEUFx1MDAwM2FcdTAwMWPa2pBGY14qbFBKw0v+XdFqXHUwMDAxKG7MXHJFilx1MDAwNJG6oDspkFx1MDAwMmeJsTdNSP1cdTAwMDZQJFx1MDAwNuNMj1x1MDAwZsWit+dCZGZcdEzPLmG6TIIjIZBFXHUwMDEwuDD4XHUwMDE4XHUwMDAxf1x1MDAwZrhHXHUwMDAwgFLId3NRs9NySVOAXHS4p1x1MDAwMlx1MDAxMVwitERUXHUwMDExlahcYjU0gHmUqMNapchlMVx1MDAwNM6eOs1cIrCAuJ5MuqiMqVx1MDAxNFx1MDAwMHNlaIXDsZky9Vx1MDAwZvGiocBZXHUwMDFhXHUwMDFm/y7/tVx1MDAwMIA351x1MDAwNrCWVDGevp44wyslSijJ1Zvc0nHlXG7NXHLWTirnPypOXTme17l1jmpcdTAwMWR778fHTrF/XGbe1zkq7vQmblx1MDAxMjluUlx1MDAwNptQ2sS0QlJki4B4UXZcIsy5hDZQjVx1MDAxOFYs8lx1MDAwZcK8XHUwMDE0z85/plBcdTAwMWMsXHRFXGZRLUC4PFlcdTAwMGZiYCbHKU9cdTAwMDTu9GdRPDtRlUVxXHUwMDE1vDqVm+JcdTAwMTFcdTAwMGYgXFz9uqJ4YYqX56Y4RG5KMlJcZuKKXHUwMDA3/sZcdTAwMWLd6LdBXFz0dvfIwYZbOX35duSo58a2g3Z+R4i/heFvQfh6wPCozn5Hhlx1MDAxM8w1XHUwMDFmQJwhXGaOw8JcdTAwMTE+qlx1MDAwN1x1MDAwZrKZXHUwMDE4UyyVXHUwMDEwlKBlZnh2NjOL4YM3XHUwMDEz2ORcXEhq0o1cdTAwMTGDs0iUXHUwMDE4Rr5jhlx1MDAxM41ccq5CVC41uFx1MDAxYqbXspZ1/nhrbsZjXHUwMDE4kVx1MDAxYUJyXmyyREJcdTAwMGYr8O8/XCL3VijD/EHe9NRRXHUwMDFjXHUwMDFjuVxc68xcdTAwMTJkjsmS7Fx1MDAxMjCdu1x1MDAxMljNXVx1MDAwYsLmrlx1MDAwNVx1MDAxMXlqgalBpIjMPcmJMoZAWYSZKprR5EJqJsDBp4FfXHUwMDE0bfp8Vip7NVaiXHUwMDFlXHUwMDE4K1x1MDAxNSyiQkxcYo2ZSjNSXHUwMDEwXG6F67EoTdRrQTYqe2VM5sJcdTAwMTBcIuNxRnpCXHUwMDEzbFx1MDAxOWah+4NS30FXyMDqN5mkX2ojtT2/kaJKKVx1MDAxOUx4XHUwMDE2MVJcdTAwMDRcdTAwMDY9RVxcv20+6TcwUnRcdTAwMTKCeVA8eUsuMzR5Sz67XHUwMDEzu4fnMjRTRTkoYyjHRSC+eFKWUE6BrIhowqlQkazGgiA/ntdSXHUwMDEwXGZJiDI4XHUwMDAzj06hZFqWXHUwMDFhXG7LXGLmP23dSvZCxcy0LIxcdTAwMTRcdTAwMTXR3/S0rFRcdTAwMTCzpLxcdTAwMWYtiVx1MDAwMUFYysqoXHUwMDE15d9M+Z25KU9cdTAwMDDzWmOiXG7tn4BcdTAwMDWDrpTiI9K2y1x1MDAwMHllcFx1MDAxZMmYXCJcdTAwMTW9PVx1MDAxN/MzS8iTtl2f1FFwJFx1MDAxNLRcYjDnztW+4pBhhodvvTLBYWh9kvONlFx1MDAxNlx1MDAxYVhLXHUwMDEwQVxcYZakMjaIYiGVsfo0LKfvTZXA8sRU7HCCSEsjyGBwXHUwMDE2vNqDVWwnKJzczyZwJVxiUbGd0sJZon/XzP6HQHk3/+tcdTAwMWNSai2DV7lS4JvIXHUwMDAwhC42IYwxJJbHxVx1MDAxZYxMaHvVdPpmu3Rq9Vx1MDAxZex6ZGTcuI5/ar9cZmqPJs7umFx1MDAxZLs9eNFworCNtt1cZlx1MDAxZcJaXHUwMDFk6m311qLPwrfrZnt8ge92w2/rUKJpO1ZviIxcdTAwMTmbXHUwMDEzuj27aTtm+/uM2pt93z2xvGH9/V7fij5cIqsyXHUwMDBlXlxywjNEnr6NVlx1MDAwZZFcdTAwMGKhXGaMkYRekmm7valcdTAwMTm7vVx1MDAwNZFcdTAwMDBcdOYhVoL/mDe9K/lcdTAwMDVcdTAwMGZ9SDHiQqTl96YqnjLJlIBQfOlcdTAwMDS/XHUwMDAx0uiYoMil0fyMnVx1MDAxNeOaz2jA+8g+feOvPLZcdTAwMWQxXHUwMDAz4nFcdTAwMDEuXG5XUulIYn74MudorlNcdTAwMTKCXHUwMDE4XHUwMDBmh8ZY9lJcdTAwMWFaqLQ9U/lqp8e5rfxeftEziSTlVKeFWFM1j4FcdTAwMTFUcEaXT/QgXG7QXG6IxnVK1pPt+V7Jdn46XHUwMDFiXHUwMDFks2GBXHUwMDA3vlxiXHUwMDAydOxGI/q2c1xmXHUwMDAyMzaJjEMgtUGlRHveXHUwMDA3XGLp+3/lXHUwMDAxXHUwMDAyRISUXCJGMGNS8sjAXHUwMDE4XGZ+gVxmPljcRDlcXIBYiu+vlFx1MDAxMbhcYlxcp+6kvHJcdTAwMDXmp8J+fipAWCpcdTAwMTDGlFx1MDAxNHL+mdBcdTAwMWFC2+WZeHmFwpbVdT3bL3X6nl+6tkpdM9pJn4eCXHUwMDE5W0fGUZDdjPchQPpcdTAwMTZdOVxiQFx1MDAwNDdcdTAwMDRFhFIpmGCKxfJufFx1MDAxNFxuIK2QokynxFx1MDAwMlx1MDAxMmJcdTAwMDG8clxuPkj+XHUwMDA3XHUwMDA1XCJcdTAwMDGCXHUwMDE001jgtPTaVPlzzlSQ3V4+p+C7XHJf+7bTLDUss1x1MDAxMcihZHs/nZ7VXHUwMDA0e2r1rKWAwYxdXHUwMDFl4zBIbVMprUnvXHUwMDAzhvTttXKAQVBpXHUwMDEwXHUwMDAx5oShYDJcdTAwMWbH8jR6tCG8XHUwMDEyXHUwMDE4XHUwMDExopM5XHUwMDFiQpGhWbCteOqs4FxuXHLzT1x1MDAxMlx1MDAxY+ZHXHUwMDAzRFxuXHUwMDE0ejJ1r8mpZFx1MDAwMIughJDLNye4ZYKkS/5ASuu25/VcdTAwMDM9ecNgXHUwMDFi+NB3llwiYpixQWPCTchoVGmyTe+DhvRttPKgQVx1MDAwNetzXHUwMDA2aSMqRFx1MDAxY1xyXFxcdTAwMGWjXHUwMDA2hlx1MDAxMISaJDVhXHUwMDAwaNBcdTAwMDKtYoZib1x1MDAwMlSLuFx1MDAwMpopzDUqNClcdTAwMTgsgVx1MDAwNuCHr1x1MDAwMi2N4odmMzCVgTKWw/LP2CMx3fKnNeF95Jy+PVZcdTAwMGU5S24whcD1RyhtUnCmpceaXHUwMDFiiMJ9Kzv/MSHA11x1MDAwMrpcdTAwMDeTrVx1MDAwNEn/20nT03+Aaso5Xb4pgLFohuawZTqgyMZPpzPIq4G6l4BcdTAwMDMzNlScyoGJJpWSLXpcdTAwMWYspL9cdTAwMTmbXHUwMDAzXHUwMDBinGlcdTAwMDMsOFx1MDAwNIZcdTAwMDRcdTAwMDZcdTAwMTWhsVx1MDAxN/+ENFx1MDAwNFx1MDAxYjpcdTAwMDFEYZpi5SU22FxuXG7FTPxRXHUwMDAxqWtcdTAwMDTmXHUwMDFkZKajI3dmXHUwMDBlgDKCXHUwMDExiyyiWVx1MDAxYa3v3YQxcVx1MDAwN1x1MDAxNFx1MDAwMsL46Vx1MDAwNH86MJBcdJhNXHUwMDBi9Ghft1x1MDAxN5NcdTAwMGacoflcdTAwMTlbIcQ1n9K0UmbL3in4T32hMo9LIIQhgr9Ng4JcdTAwMTeESGyRZqB9iTh4XHUwMDBiKNjimSVcdTAwMTOFXHUwMDA0cYNgcClSPfyV/KfJ/1tcdTAwMTH5a0lcdTAwMTRcIrzQZFx1MDAxZlx1MDAwNidcdTAwMGX6jL7tr9N8qPxP4dmsN8znsVK8n455XHUwMDAzKi01XHUwMDA2kTGEwFx1MDAwM90sS1x1MDAxNmDGe/RxXHUwMDA0JJtXmt26wlx1MDAxOPgycizXzG731IcuWntd/VxiQ9JuxJ7U8JxvdcOnNDhVdVx1MDAxYta2Y1x1MDAwMpFi3bX2YFuPm9lcbvwyolGgQGuwdPjXl1//XHUwMDAz+NbFYyJ9<!-- payload-end --></metadata><defs><style class="style-fonts">
      @font-face { font-family: Excalifont; src: url(https://esm.sh/@excalidraw/excalidraw@0.18.0/dist/prod/fonts/Excalifont/Excalifont-Regular-a88b72a24fb54c9f94e3b5fdaa7481c9.woff2); }</style></defs><rect x="0" y="0" width="1023.8966054098369" height="665.0000438690186" fill="transparent"/><g stroke-linecap="round" transform="translate(30 30) rotate(0 256.11981201171875 232.50003051757812)"><path d="M0 0 C160.59 -1.59, 321.58 -1.61, 512.24 0 M0 0 C130.21 1.62, 260.7 2.11, 512.24 0 M512.24 0 C509.84 185.72, 511.05 370.72, 512.24 465 M512.24 0 C512.33 110.86, 512.08 222.24, 512.24 465 M512.24 465 C391.8 463.67, 272.33 464.4, 0 465 M512.24 465 C387.65 466.92, 262.35 466.62, 0 465 M0 465 C0.05 284.46, 0.09 106.08, 0 0 M0 465 C-0.73 327.5, -1.05 190.94, 0 0" stroke="#1e1e1e" stroke-width="2" fill="none"/></g><g transform="translate(219.00555419921875 35) rotate(0 67.1142578125 12.5)"><text x="67.1142578125" y="17.619999999999997" font-family="Excalifont, Xiaolai, Segoe UI Emoji" font-size="20px" fill="#1e1e1e" text-anchor="middle" style="white-space: pre;" direction="ltr" dominant-baseline="alphabetic">Manual Service</text></g><g stroke-linecap="round" transform="translate(562.2396240234375 385.0000228881836) rotate(0 207.5 55)"><path d="M0 0 C117.79 0.57, 235.66 0.33, 415 0 M0 0 C105.5 0.49, 212.18 0.75, 415 0 M415 0 C414.61 25.45, 413.25 47.58, 415 110 M415 0 C414.44 32.2, 415.03 63.78, 415 110 M415 110 C289.11 110.09, 164.65 108.78, 0 110 M415 110 C318.79 111.65, 222.1 112.23, 0 110 M0 110 C-2.5 75.9, 0.35 39.37, 0 0 M0 110 C-0.5 71.68, 0.65 32.81, 0 0" stroke="#1e1e1e" stroke-width="2" fill="none"/></g><g transform="translate(690.1107177734375 390.0000228881836) rotate(0 79.62890625 12.5)"><text x="79.62890625" y="17.619999999999997" font-family="Excalifont, Xiaolai, Segoe UI Emoji" font-size="20px" fill="#1e1e1e" text-anchor="middle" style="white-space: pre;" direction="ltr" dominant-baseline="alphabetic">Automatic Service</text></g><g stroke-linecap="round" transform="translate(85 55.00000190734863) rotate(0 130.00001525878906 30.000003814697266)"><path d="M0 0 C96.83 0.01, 193.68 -0.52, 260 0 M0 0 C53.15 2.19, 106.28 1.33, 260 0 M260 0 C260.57 13.69, 258.3 29.6, 260 60 M260 0 C260.3 17.92, 259.67 35.74, 260 60 M260 60 C195.91 59.99, 128.84 58.08, 0 60 M260 60 C158.05 59.75, 57.12 60.43, 0 60 M0 60 C0.84 39.51, -0.43 18.02, 0 0 M0 60 C-0.44 44.41, -1.06 28.8, 0 0" stroke="#1e1e1e" stroke-width="2" fill="none"/></g><g transform="translate(126.01564025878906 60.0000057220459) rotate(0 88.984375 25)"><text x="88.984375" y="17.619999999999997" font-family="Excalifont, Xiaolai, Segoe UI Emoji" font-size="20px" fill="#1e1e1e" text-anchor="middle" style="white-space: pre;" direction="ltr" dominant-baseline="alphabetic">Reservation exists in</text><text x="88.984375" y="42.62" font-family="Excalifont, Xiaolai, Segoe UI Emoji" font-size="20px" fill="#1e1e1e" text-anchor="middle" style="white-space: pre;" direction="ltr" dominant-baseline="alphabetic">Amadeus</text></g><g stroke-linecap="round" transform="translate(170.26042938232422 165.00000953674316) rotate(0 124.47917175292969 30.000003814697266)"><path d="M0 0 C65.39 -0.27, 130.42 -1.11, 248.96 0 M0 0 C72.61 -0.23, 144.1 -1.47, 248.96 0 M248.96 0 C247.84 12, 248.87 26.4, 248.96 60 M248.96 0 C248.69 20.56, 248.66 41.94, 248.96 60 M248.96 60 C181.92 60.41, 112.09 62.82, 0 60 M248.96 60 C154.28 60.29, 60.81 60.05, 0 60 M0 60 C1.54 38.68, 1.51 16.86, 0 0 M0 60 C0.79 37.6, 1.03 15.61, 0 0" stroke="#1e1e1e" stroke-width="2" fill="none"/></g><g transform="translate(200.3304214477539 182.50001335144043) rotate(0 94.4091796875 12.5)"><text x="94.4091796875" y="17.619999999999997" font-family="Excalifont, Xiaolai, Segoe UI Emoji" font-size="20px" fill="#1e1e1e" text-anchor="middle" style="white-space: pre;" direction="ltr" dominant-baseline="alphabetic">Deposit must be paid</text></g><g stroke-linecap="round" transform="translate(247.23959350585938 275.0000171661377) rotate(0 130.00001525878906 30.000003814697266)"><path d="M0 0 C74.84 -0.47, 149.6 0.09, 260 0 M0 0 C54.4 -1.24, 106.79 -1.25, 260 0 M260 0 C259.09 18.42, 260.27 38.19, 260 60 M260 0 C259.34 14.8, 259.49 29.28, 260 60 M260 60 C191.49 59.98, 126.24 62.31, 0 60 M260 60 C179.43 58.84, 97.94 59.11, 0 60 M0 60 C-0.45 48.53, -1.07 36.4, 0 0 M0 60 C-0.64 47.86, -0.92 35.5, 0 0" stroke="#1e1e1e" stroke-width="2" fill="none"/></g><g transform="translate(287.63023376464844 280.00002098083496) rotate(0 89.609375 25)"><text x="89.609375" y="17.619999999999997" font-family="Excalifont, Xiaolai, Segoe UI Emoji" font-size="20px" fill="#1e1e1e" text-anchor="middle" style="white-space: pre;" direction="ltr" dominant-baseline="alphabetic">Ticketing deadline is</text><text x="89.609375" y="42.62" font-family="Excalifont, Xiaolai, Segoe UI Emoji" font-size="20px" fill="#1e1e1e" text-anchor="middle" style="white-space: pre;" direction="ltr" dominant-baseline="alphabetic">registered</text></g><g stroke-linecap="round" transform="translate(644.739631652832 410.0000247955322) rotate(0 130.00001525878906 30.000003814697266)"><path d="M0 0 C71.16 -0.6, 143.6 -0.55, 260 0 M0 0 C90.72 -2.48, 182.06 -1.99, 260 0 M260 0 C259.5 21.1, 260.72 41.22, 260 60 M260 0 C260.06 17.4, 259.76 35.39, 260 60 M260 60 C163.98 60.3, 71.38 59.03, 0 60 M260 60 C187.51 62.26, 115.12 61.05, 0 60 M0 60 C0.66 37.79, 0.94 15.23, 0 0 M0 60 C0.35 41.46, 0.63 24.04, 0 0" stroke="#1e1e1e" stroke-width="2" fill="none"/></g><g transform="translate(659.2660140991211 415.0000286102295) rotate(0 115.4736328125 25)"><text x="115.4736328125" y="17.619999999999997" font-family="Excalifont, Xiaolai, Segoe UI Emoji" font-size="20px" fill="#1e1e1e" text-anchor="middle" style="white-space: pre;" direction="ltr" dominant-baseline="alphabetic">Daily ticket-issuing service</text><text x="115.4736328125" y="42.62" font-family="Excalifont, Xiaolai, Segoe UI Emoji" font-size="20px" fill="#1e1e1e" text-anchor="middle" style="white-space: pre;" direction="ltr" dominant-baseline="alphabetic">runs</text></g><g stroke-linecap="round" transform="translate(676.7188110351562 575.000036239624) rotate(0 98.02083587646484 30.000003814697266)"><path d="M0 0 C54.61 0.69, 111.24 1.9, 196.04 0 M0 0 C64.04 0.74, 129.23 2.06, 196.04 0 M196.04 0 C195.63 15.54, 194.6 28.89, 196.04 60 M196.04 0 C195.15 18.06, 195.25 37.32, 196.04 60 M196.04 60 C129.04 60.23, 58.62 58.26, 0 60 M196.04 60 C150.27 60.94, 102.41 60.99, 0 60 M0 60 C-0.69 40.29, -1.76 17.97, 0 0 M0 60 C-0.55 41.25, -0.4 21.54, 0 0" stroke="#1e1e1e" stroke-width="2" fill="none"/></g><g transform="translate(709.2416000366211 592.5000400543213) rotate(0 65.498046875 12.5)"><text x="65.498046875" y="17.619999999999997" font-family="Excalifont, Xiaolai, Segoe UI Emoji" font-size="20px" fill="#1e1e1e" text-anchor="middle" style="white-space: pre;" direction="ltr" dominant-baseline="alphabetic">Ticket is issued</text></g><g stroke-linecap="round" transform="translate(65 410.0000247955322) rotate(0 130.00001525878906 30.000003814697266)"><path d="M0 0 C65.96 0.52, 133.04 2.49, 260 0 M0 0 C103.16 1.16, 208.01 0.61, 260 0 M260 0 C261.03 13.26, 259.92 28.78, 260 60 M260 0 C259.74 13.68, 260.67 28.67, 260 60 M260 60 C197.85 62.1, 132.87 60.89, 0 60 M260 60 C159.96 60.46, 59.53 61.59, 0 60 M0 60 C0.95 40.52, -0.43 25.13, 0 0 M0 60 C0.48 45.31, 0.3 31.41, 0 0" stroke="#1e1e1e" stroke-width="2" fill="none"/></g><g transform="translate(97.48048400878906 415.0000286102295) rotate(0 97.51953125 25)"><text x="97.51953125" y="17.619999999999997" font-family="Excalifont, Xiaolai, Segoe UI Emoji" font-size="20px" fill="#1e1e1e" text-anchor="middle" style="white-space: pre;" direction="ltr" dominant-baseline="alphabetic">Ticket issuing handled</text><text x="97.51953125" y="42.62" font-family="Excalifont, Xiaolai, Segoe UI Emoji" font-size="20px" fill="#1e1e1e" text-anchor="middle" style="white-space: pre;" direction="ltr" dominant-baseline="alphabetic">manually</text></g><g stroke-linecap="round"><g transform="translate(258.494 115.5) rotate(0 18.123000000000005 22.5)"><path d="M-0.05 -0.52 C6.08 3.68, 30.39 17.15, 36.53 24.66 C42.67 32.18, 36.89 41.25, 36.79 44.57 M-0.74 0.41 C5.36 4.48, 30 16.36, 36.24 23.78 C42.49 31.2, 36.78 41.44, 36.72 44.95" stroke="#1e1e1e" stroke-width="2" fill="none"/></g><g transform="translate(258.494 115.5) rotate(0 18.123000000000005 22.5)"><path d="M35.5 34.77 C35.28 37.64, 36.22 40.48, 36.72 44.95 M35.5 34.77 C35.77 37.17, 35.86 39.14, 36.72 44.95" stroke="#1e1e1e" stroke-width="2" fill="none"/></g><g transform="translate(258.494 115.5) rotate(0 18.123000000000005 22.5)"><path d="M42.32 36.36 C40.37 38.82, 39.57 41.26, 36.72 44.95 M42.32 36.36 C41.08 38.38, 39.67 39.99, 36.72 44.95" stroke="#1e1e1e" stroke-width="2" fill="none"/></g></g><mask/><g stroke-linecap="round"><g transform="translate(339.74 225.5) rotate(0 18.75 22.5)"><path d="M-0.52 0.28 C5.85 4.47, 31.4 17.64, 37.66 25.05 C43.93 32.45, 37.17 41.38, 37.07 44.71 M0.22 -0.05 C6.57 4, 30.99 16.82, 37.31 24.36 C43.64 31.9, 38.23 41.63, 38.17 45.17" stroke="#1e1e1e" stroke-width="2" fill="none"/></g><g transform="translate(339.74 225.5) rotate(0 18.75 22.5)"><path d="M36.85 35 C37.38 37.22, 37.89 38.73, 38.17 45.17 M36.85 35 C37.27 37.37, 37.31 40.02, 38.17 45.17" stroke="#1e1e1e" stroke-width="2" fill="none"/></g><g transform="translate(339.74 225.5) rotate(0 18.75 22.5)"><path d="M43.69 36.53 C42.83 38.41, 41.96 39.61, 38.17 45.17 M43.69 36.53 C42.42 38.52, 40.76 40.8, 38.17 45.17" stroke="#1e1e1e" stroke-width="2" fill="none"/></g></g><mask/><g stroke-linecap="round"><g transform="translate(417.285 335.5) rotate(0 111.50550000000001 40.66650000000001)"><path d="M0.62 0.35 C6.24 4.47, 28.44 15.53, 33.65 23.56 C38.85 31.59, 0.25 38.81, 31.83 48.54 C63.41 58.28, 191.38 76.62, 223.12 81.96 M-0.52 -0.51 C5.06 3.83, 28.11 16.3, 33.32 24.61 C38.53 32.92, -0.95 40.17, 30.73 49.36 C62.42 58.55, 191.2 74.53, 223.43 79.74" stroke="#1e1e1e" stroke-width="2" fill="none"/></g><g transform="translate(417.285 335.5) rotate(0 111.50550000000001 40.66650000000001)"><path d="M198.96 84.88 C206.71 85.24, 211.67 80.72, 223.43 79.74 M198.96 84.88 C203.76 83.01, 209.67 82.46, 223.43 79.74" stroke="#1e1e1e" stroke-width="2" fill="none"/></g><g transform="translate(417.285 335.5) rotate(0 111.50550000000001 40.66650000000001)"><path d="M201.38 67.95 C208.27 73.25, 212.53 73.65, 223.43 79.74 M201.38 67.95 C205.66 69.82, 211.04 73.01, 223.43 79.74" stroke="#1e1e1e" stroke-width="2" fill="none"/></g></g><mask/><g mask="url(#mask-ejIXIE9S1F7fDMazVhdb-)" stroke-linecap="round"><g transform="translate(715.24 470.5) rotate(0 -24.395649582902024 51.32417244307322)"><path d="M0.35 1.19 C-8.03 5.07, -42.8 13.3, -51.44 23.87 C-60.07 34.44, -61.55 51.73, -51.46 64.61 C-41.36 77.49, -0.76 94.95, 9.11 101.15 M-0.92 0.77 C-8.84 4.74, -41.2 14.21, -49.22 25.08 C-57.24 35.95, -58.88 53.19, -49.06 65.99 C-39.24 78.79, -0.08 95.86, 9.69 101.88" stroke="#1e1e1e" stroke-width="2" fill="none"/></g><g transform="translate(715.24 470.5) rotate(0 -24.395649582902024 51.32417244307322)"><path d="M-15.08 98.48 C-7.97 97.54, -5.89 98.22, 9.69 101.88 M-15.08 98.48 C-8.01 99.61, 0.24 101.26, 9.69 101.88" stroke="#1e1e1e" stroke-width="2" fill="none"/></g><g transform="translate(715.24 470.5) rotate(0 -24.395649582902024 51.32417244307322)"><path d="M-7.1 83.35 C-1.56 85.56, -1.13 89.35, 9.69 101.88 M-7.1 83.35 C-2.42 89.11, 3.36 95.45, 9.69 101.88" stroke="#1e1e1e" stroke-width="2" fill="none"/></g></g><mask id="mask-ejIXIE9S1F7fDMazVhdb-"><rect x="0" y="0" fill="#fff" width="874.222" height="672.353"/><rect x="571.0570062805011" y="489.6449928766865" fill="#000" width="171.40625" height="50" opacity="1"/></mask><g transform="translate(571.057006280501 489.64499287668656) rotate(0 119.78734413659686 32.179179566386665)"><text x="85.703125" y="17.619999999999997" font-family="Excalifont, Xiaolai, Segoe UI Emoji" font-size="20px" fill="#1e1e1e" text-anchor="middle" style="white-space: pre;" direction="ltr" dominant-baseline="alphabetic">If deadline met and</text><text x="85.703125" y="42.62" font-family="Excalifont, Xiaolai, Segoe UI Emoji" font-size="20px" fill="#1e1e1e" text-anchor="middle" style="white-space: pre;" direction="ltr" dominant-baseline="alphabetic">booking is eligible</text></g><g mask="url(#mask-W7_5CQ_yI5Mq3EpYCZZ_0)" stroke-linecap="round"><g transform="translate(834.24 470.5) rotate(0 24.374354348766758 50.45071487677842)"><path d="M1.19 -0.94 C9.4 2.93, 41.64 12.53, 49.87 23.54 C58.11 34.56, 60.46 52.2, 50.61 65.13 C40.77 78.06, 0.67 95, -9.19 101.12 M0.36 1.18 C8.91 5.14, 44 14.26, 52.26 24.58 C60.52 34.9, 60.17 50.24, 49.9 63.12 C39.64 75.99, 0.68 95.33, -9.31 101.84" stroke="#1e1e1e" stroke-width="2" fill="none"/></g><g transform="translate(834.24 470.5) rotate(0 24.374354348766758 50.45071487677842)"><path d="M6.76 82.69 C-0.39 88.54, -6.07 96.49, -9.31 101.84 M6.76 82.69 C0.91 89.32, -4.15 95.55, -9.31 101.84" stroke="#1e1e1e" stroke-width="2" fill="none"/></g><g transform="translate(834.24 470.5) rotate(0 24.374354348766758 50.45071487677842)"><path d="M15.31 97.51 C5.11 98.23, -3.57 100.98, -9.31 101.84 M15.31 97.51 C6.53 98.86, -1.54 99.87, -9.31 101.84" stroke="#1e1e1e" stroke-width="2" fill="none"/></g></g><mask id="mask-W7_5CQ_yI5Mq3EpYCZZ_0"><rect x="0" y="0" fill="#fff" width="993.2230000000001" height="672.353"/><rect x="788.6817616598369" y="489.7063331494503" fill="#000" width="205.21484375" height="50" opacity="1"/></mask><g transform="translate(788.6817616598368 489.7063331494503) rotate(0 69.9325926889299 31.24438172732806)"><text x="102.607421875" y="17.619999999999997" font-family="Excalifont, Xiaolai, Segoe UI Emoji" font-size="20px" fill="#1e1e1e" text-anchor="middle" style="white-space: pre;" direction="ltr" dominant-baseline="alphabetic">Same-day deadlines</text><text x="102.607421875" y="42.62" font-family="Excalifont, Xiaolai, Segoe UI Emoji" font-size="20px" fill="#1e1e1e" text-anchor="middle" style="white-space: pre;" direction="ltr" dominant-baseline="alphabetic">after daily run and paid</text></g><g stroke-linecap="round"><g transform="translate(165.045 115.5) rotate(0 -21.272499999999994 145.791)"><path d="M-0.94 -0.63 C-8.25 3.28, -36.67 11.38, -43.5 24.61 C-50.33 37.85, -41.95 60.49, -41.92 78.79 C-41.88 97.09, -43.17 115.86, -43.28 134.41 C-43.39 152.97, -42.59 171.8, -42.57 190.14 C-42.56 208.49, -43.21 231.38, -43.19 244.48 C-43.17 257.57, -47.47 260.96, -42.48 268.72 C-37.49 276.47, -18.06 287.26, -13.25 290.99" stroke="#1e1e1e" stroke-width="2.5" fill="none" stroke-dasharray="8 10"/></g><g transform="translate(165.045 115.5) rotate(0 -21.272499999999994 145.791)"><path d="M-31.06 286.66 C-26.11 286.76, -19.12 290.61, -13.25 290.99" stroke="#1e1e1e" stroke-width="2.5" fill="none"/></g><g transform="translate(165.045 115.5) rotate(0 -21.272499999999994 145.791)"><path d="M-24.11 276.22 C-21.34 279.71, -16.64 286.99, -13.25 290.99" stroke="#1e1e1e" stroke-width="2.5" fill="none"/></g></g><mask/><g stroke-linecap="round"><g transform="translate(249.24 225.5) rotate(0 -21.570000000000007 90.0915)"><path d="M-0.63 -0.96 C-6.97 3.39, -30.71 11.84, -36.89 25.13 C-43.07 38.42, -37.67 60.54, -37.71 78.77 C-37.74 96.99, -37.31 121.12, -37.09 134.47 C-36.86 147.82, -35.34 151.23, -36.36 158.86 C-37.37 166.49, -41.9 176.69, -43.16 180.25" stroke="#1e1e1e" stroke-width="2.5" fill="none" stroke-dasharray="8 10"/></g><g transform="translate(249.24 225.5) rotate(0 -21.570000000000007 90.0915)"><path d="M-42.95 169.46 C-43.98 173.87, -42.64 177.44, -43.16 180.25" stroke="#1e1e1e" stroke-width="2.5" fill="none"/></g><g transform="translate(249.24 225.5) rotate(0 -21.570000000000007 90.0915)"><path d="M-36.07 172.12 C-39.82 175.43, -41.23 177.94, -43.16 180.25" stroke="#1e1e1e" stroke-width="2.5" fill="none"/></g></g><mask/><g stroke-linecap="round"><g transform="translate(365.831 335.5) rotate(0 -39.024 36.358000000000004)"><path d="M-0.96 0.11 C-2.13 4.18, -6.57 15.58, -7.96 23.79 C-9.36 32.01, 2.36 41.15, -9.32 49.41 C-21.01 57.68, -66.51 69.48, -78.08 73.36" stroke="#1e1e1e" stroke-width="2.5" fill="none" stroke-dasharray="8 10"/></g><g transform="translate(365.831 335.5) rotate(0 -39.024 36.358000000000004)"><path d="M-58.03 58.42 C-62.37 62.62, -68.18 63.67, -78.08 73.36" stroke="#1e1e1e" stroke-width="2.5" fill="none"/></g><g transform="translate(365.831 335.5) rotate(0 -39.024 36.358000000000004)"><path d="M-53.12 74.8 C-58.46 75.33, -65.36 72.74, -78.08 73.36" stroke="#1e1e1e" stroke-width="2.5" fill="none"/></g></g><mask/></svg>